<svg width="1123" height="797" viewBox="0 0 1123 797" fill="none" xmlns="http://www.w3.org/2000/svg">
<g style="mix-blend-mode:multiply" opacity="0.1">
<path d="M760.141 22.0288L757.755 239.023L725.377 22.0288H760.141Z" fill="#F7A60D"/>
<path d="M812.968 20.7797L757.755 239.023L834.326 21.7838L812.968 20.7797Z" fill="#F7A60D"/>
<path d="M687.092 21.9152L757.755 239.023L672.21 21.9152H687.092Z" fill="#F7A60D"/>
<path d="M603.023 25.4353L757.755 239.023L547.015 25.4353H603.023Z" fill="#F7A60D"/>
<path d="M474.875 28.8418L757.755 239.023L423.752 28.8418H474.875Z" fill="#F7A60D"/>
<path d="M868.749 24.1862L757.755 239.023L914.646 24.1862H868.749Z" fill="#F7A60D"/>
<path d="M1002.58 32.9296L757.755 239.023L1043.25 32.9296H1002.58Z" fill="#F7A60D"/>
<path d="M1091.64 69.3793L757.755 239.023L1093.69 131.832L1091.64 69.3793Z" fill="#F7A60D"/>
<path d="M1117.89 206.548L757.755 239.023L1117.89 241.749V206.548Z" fill="#F7A60D"/>
<path d="M1123 296.48L757.755 239.023L1123 363.248V296.48Z" fill="#F7A60D"/>
<path d="M1064.27 434.671L757.755 239.023L974.29 507.171L1064.27 434.671Z" fill="#F7A60D"/>
<path d="M930.552 512.281L757.755 239.023L855.572 512.281H930.552Z" fill="#F7A60D"/>
<path d="M298 721L757.755 239.023L246 721H298Z" fill="#F7A60D"/>
<path d="M757.755 239.023L834.326 655L812.968 653L757.755 239.023Z" fill="#F7A60D"/>
<path d="M765.5 655L757.755 239.023L732.5 653L765.5 655Z" fill="#F7A60D"/>
<path d="M584 797L757.755 239.023L556.5 797H584Z" fill="#F7A60D"/>
<path d="M482.5 780.5L757.755 239.023L440.5 780.5H482.5Z" fill="#F7A60D"/>
<path d="M253.5 571.5L757.755 239.023L91 515.546L253.5 571.5Z" fill="#F7A60D"/>
<path d="M0 288.304L757.755 239.023L0 240.613V288.304Z" fill="#F7A60D"/>
<path d="M59.6434 0L757.755 239.023L28.4016 116.538L59.6434 0Z" fill="#F7A60D"/>
</g>
</svg>
